Coordinates
version=1
nRows=14
nColumns=36
inDegrees=yes

Units are S.I. units (second, meters, Newtons, ...)
If the header above contains a line with 'inDegrees', this indicates whether rotational values are in degrees (yes) or radians (no).

endheader
time	pelvis_tilt	pelvis_list	pelvis_rotation	pelvis_tx	pelvis_ty	pelvis_tz	hip_flexion_r	hip_adduction_r	hip_rotation_r	knee_angle_r	knee_angle_r_beta	ankle_angle_r	subtalar_angle_r	mtp_angle_r	hip_flexion_l	hip_adduction_l	hip_rotation_l	knee_angle_l	knee_angle_l_beta	ankle_angle_l	subtalar_angle_l	mtp_angle_l	lumbar_extension	lumbar_bending	lumbar_rotation	arm_flex_r	arm_add_r	arm_rot_r	elbow_flex_r	pro_sup_r	arm_flex_l	arm_add_l	arm_rot_l	elbow_flex_l	pro_sup_l
      2.80000000	    -32.89986014	     -0.77665888	     -3.97192204	      0.93290818	      0.53614705	     -0.62697523	    106.03886829	     -9.18772867	      2.97094254	    112.03079567	      1.95530625	     36.96411604	      1.20944712	     -7.49999987	    109.78392180	    -13.73226453	     14.56525010	    113.96161732	      1.98900544	     32.56195321	      2.65181028	     -7.49999987	    -41.72996014	      1.23119394	      5.96517160	     88.25346449	    -21.08690575	     14.82342609	    113.95396989	     86.95427547	     78.47531992	    -25.03721094	     19.89282794	    121.19355620	     89.06124111
      2.81666670	    -33.00544034	     -0.55216960	     -3.86732576	      0.93667741	      0.55180321	     -0.62864632	    103.46028882	     -8.75040552	      2.94908286	    109.53112192	      1.91167871	     36.96893803	      0.05878166	     -7.49999987	    106.95301213	    -12.86769260	     13.62959512	    111.86537517	      1.95241912	     32.51576894	      0.69608273	     -7.49999987	    -40.62289564	      1.60056460	      5.38110598	     88.34329011	    -21.24136924	     14.40982733	    117.24887756	     86.62747830	     80.67371219	    -25.85581533	     19.69999774	    121.10092255	     89.20545035
      2.83333330	    -33.21384313	     -0.38413700	     -3.73148277	      0.93650496	      0.56203521	     -0.62758160	    101.20581808	     -8.26505630	      2.91050439	    106.95779843	      1.86676574	     37.03784521	     -0.63169499	     -7.49999987	    104.51040976	    -12.09313617	     12.84999412	    109.60338989	      1.91294002	     32.39541276	     -1.06641647	     -7.49999987	    -39.34213842	      1.61405159	      5.50356685	     91.34836023	    -22.71495476	     13.28118954	    122.23605899	     85.93895613	     83.92016660	    -26.78326565	     19.50904695	    123.89081262	     88.99006832
      2.85000000	    -33.23150984	      0.08641961	     -3.74756658	      0.93817052	      0.57374656	     -0.63445245	     99.12587460	     -7.85019563	      3.17051890	    104.50608238	      1.82397523	     36.78718103	     -1.20439999	     -7.49999987	    102.01100760	    -11.28832055	     11.93950510	    107.42489705	      1.87491815	     32.18496888	     -2.46886999	     -7.49999987	    -37.77558564	      1.30669592	      5.04655207	     93.81794909	    -24.06444543	     11.31843448	    123.31376570	     85.07973111	     89.02675315	    -27.42204220	     21.44096430	    123.71741874	     89.02844381
      2.86666670	    -33.22808133	      0.37378212	     -3.67854143	      0.95141046	      0.61647060	     -0.63331247	     95.01059792	     -7.60160445	      3.09226738	     99.70943101	      1.74025787	     35.97598288	     -1.91313231	     -7.49999987	     97.66865383	    -10.27475978	     10.83622214	    102.82223559	      1.79458656	     31.14257471	     -4.43306623	     -7.49999987	    -37.08688365	      1.21863101	      4.90327659	     95.54152594	    -24.04727161	     10.91437523	    124.06891769	     83.38725648	     89.65781910	    -28.29975976	     21.38635006	    124.68471652	     87.36216344
      2.88333330	    -32.40811607	      0.64858879	     -3.67395749	      0.96226361	      0.62844879	     -0.63162417	     90.50074384	     -7.11299043	      3.23771265	     95.41519966	      1.66530939	     35.40819074	     -2.61214652	     -7.49999987	     92.79707633	     -9.66831081	      9.90652312	     98.50438556	      1.71922586	     30.14307649	     -6.15869031	     -7.49999987	    -35.86495832	      1.22019054	      4.73890603	     96.93830107	    -24.55754085	     10.12722382	    127.39045315	     83.06528755	     90.98721448	    -29.61820138	     19.57274190	    126.87136929	     87.08604247
      2.90000000	    -31.56539387	      1.05282428	     -3.66167991	      0.96939020	      0.64568255	     -0.63246435	     86.22942336	     -6.69440840	      3.55222516	     91.33957098	      1.59417625	     34.56649677	     -3.73373295	     -7.49999987	     88.33598334	     -8.93717814	      9.19849318	     94.55977852	      1.65037948	     29.11355982	     -7.72259065	     -7.49999987	    -34.03663873	      1.11895227	      4.75151446	     98.83593496	    -25.33872980	     10.82837713	    129.16932845	     81.45683923	     91.69230327	    -30.12131547	     18.21226631	    128.75966943	     84.93386690
      2.91666670	    -30.71676791	      1.49961271	     -3.62668906	      0.98406289	      0.66901654	     -0.63890193	     81.65550708	     -6.80748208	      3.80640699	     86.90707783	      1.51681465	     33.81986580	     -4.50539229	     -7.49999987	     83.56518999	     -7.98972840	      8.37120271	     90.41978613	      1.57812298	     28.21697348	     -9.07788495	     -7.49999987	    -32.42418100	      1.33095322	      4.41567620	     99.99962021	    -26.77863306	     12.66701592	    130.93757373	     81.36666801	     88.87008216	    -32.24115972	     15.98233914	    131.74280597	     84.27448866
      2.93333330	    -29.53961826	      1.71684590	     -3.74425743	      1.01180736	      0.69381915	     -0.63231844	     75.87680913	     -6.61409247	      3.93860775	     82.21533130	      1.43492823	     33.18195609	     -5.43439391	     -7.49999987	     77.59923296	     -7.60740211	      7.72364448	     85.67940200	      1.49538767	     27.38728475	    -10.04814505	     -7.49999987	    -30.56823657	      1.21576530	      3.16167868	     97.59304295	    -27.07849061	     13.07490180	    132.85369937	     81.16972037	     83.13113648	    -37.13830868	     12.68552411	    135.83254582	     83.67502866
      2.95000000	    -28.46539150	      1.62515815	     -3.82452856	      1.02329394	      0.70918768	     -0.61876124	     70.93195509	     -5.91538362	      3.58139255	     78.35236717	      1.36750678	     32.47735514	     -6.77449528	     -7.49999987	     72.67977352	     -7.99147135	      7.44288860	     81.77371758	      1.42722061	     26.51231392	    -10.80073507	     -7.49999987	    -28.08109833	      0.81396436	      1.61502214	     94.78608610	    -27.78846423	     13.46564667	    134.45124966	     79.82483552	     79.35393343	    -44.14304132	      9.17827387	    139.15760936	     81.06212770
      2.96666670	    -27.55797681	      1.58402092	     -3.65564723	      1.03145102	      0.72708734	     -0.62120938	     66.58700568	     -5.70181523	      3.04679173	     74.39516671	      1.29844061	     31.62126008	     -7.66338931	     -7.49999987	     68.63870615	     -8.12583050	      7.02743785	     78.33744849	      1.36724640	     25.34225804	    -11.56761208	     -7.49999987	    -25.28990661	      0.39435343	      1.56388254	     93.33854109	    -31.56970387	     13.29919426	    135.21460970	     79.32544586	     77.47554073	    -47.34574363	      8.50569292	    139.55260054	     80.38113554
      2.98333330	    -26.43291335	      1.93327485	     -3.48751834	      1.03830138	      0.75516569	     -0.62497452	     61.72666001	     -6.16896280	      2.58876394	     68.99607839	      1.20420874	     29.40233537	     -8.92910294	     -7.49999987	     63.94965423	     -7.75595362	      6.06879034	     73.30171285	      1.27935624	     22.87720644	    -13.10156597	     -7.49999987	    -23.88779868	      0.44358834	      0.33111170	     93.95712419	    -33.65820241	     15.74897852	    134.63333297	     78.66074784	     69.97019645	    -53.04169948	      1.57060306	    141.26081281	     77.57605898
      3.00000000	    -25.46229027	      2.24571798	     -3.35340117	      1.05030671	      0.77919701	     -0.62159236	     57.13043487	     -6.61671590	      1.93240596	     63.39845592	      1.10651180	     27.12132848	     -9.49811184	     -7.49999987	     59.26716456	     -7.70827354	      4.81050895	     67.69265031	      1.18145963	     20.33280243	    -13.59724673	     -7.49999987	    -21.97209255	     -0.13412006	     -0.38675368	     92.71920595	    -37.49024683	     14.62317655	    136.37770726	     75.65432363	     63.40886629	    -58.34006067	     -3.90041988	    142.49091117	     73.16406867
      3.01666670	    -23.70594600	      2.86227903	     -3.37091813	      1.06458445	      0.80195801	     -0.62874465	     51.35937380	     -7.53880588	      1.47192989	     57.33213815	      1.00063458	     24.59319876	     -9.87727258	     -7.49999987	     53.22168396	     -7.24553777	      2.93890175	     61.58441759	      1.07485085	     17.45122477	    -13.60671513	     -7.49999987	    -19.82321261	     -1.16486280	      0.09841785	     90.14217955	    -43.85338076	     12.51584055	    136.51708880	     74.55893254	     60.12020637	    -60.43310656	     -5.65284258	    141.58585292	     72.30591649
